<svg width="21" height="20" viewBox="0 0 21 20" fill="none" xmlns="http://www.w3.org/2000/svg">
<path d="M19.9789 18.3129L16.2711 14.6329C17.7104 12.8373 18.4074 10.5582 18.2188 8.26415C18.0302 5.97016 16.9704 3.83564 15.2573 2.2995C13.5441 0.76336 11.3079 -0.0576363 9.00839 0.00532409C6.70887 0.0682845 4.52085 1.01042 2.89424 2.638C1.26763 4.26558 0.326058 6.45489 0.263135 8.75578C0.200212 11.0567 1.02072 13.2942 2.55595 15.0084C4.09117 16.7225 6.22442 17.783 8.51706 17.9717C10.8097 18.1604 13.0875 17.463 14.882 16.0229L18.5598 19.7029C18.6527 19.7966 18.7632 19.871 18.885 19.9217C19.0068 19.9725 19.1374 19.9987 19.2694 19.9987C19.4013 19.9987 19.5319 19.9725 19.6537 19.9217C19.7755 19.871 19.886 19.7966 19.9789 19.7029C20.1591 19.5164 20.2598 19.2672 20.2598 19.0079C20.2598 18.7485 20.1591 18.4993 19.9789 18.3129ZM9.27531 16.0229C7.89166 16.0229 6.53909 15.6123 5.38863 14.8431C4.23817 14.074 3.34149 12.9807 2.81199 11.7016C2.28249 10.4226 2.14395 9.01509 2.41389 7.65722C2.68382 6.29935 3.35011 5.05207 4.3285 4.07311C5.30689 3.09414 6.55343 2.42745 7.91049 2.15736C9.26755 1.88726 10.6742 2.02588 11.9525 2.5557C13.2308 3.08551 14.3234 3.98272 15.0921 5.13386C15.8608 6.28501 16.2711 7.63838 16.2711 9.02285C16.2711 10.8794 15.5341 12.6598 14.2221 13.9726C12.9101 15.2854 11.1307 16.0229 9.27531 16.0229Z" fill="#7C7C8D"/>
</svg>
