<svg width="407" height="550" fill="none" xmlns="http://www.w3.org/2000/svg"><g opacity=".5"><rect x="1" y="1" width="405" height="548" rx="10" fill="#F7F7F7"/><path d="M202.442 231.967v-28.679h-40.383v99.844h74.883v-65.589h-28.884a5.635 5.635 0 0 1-3.971-1.633 5.558 5.558 0 0 1-1.645-3.943Zm-17.919 6.638c2.956 0 5.349 2.377 5.349 5.311s-2.393 5.311-5.349 5.311c-2.955 0-5.348-2.377-5.348-5.311s2.393-5.311 5.348-5.311Zm39.581 39.035h-49.195c-.896 0-1.391-1.022-.842-1.713l13.345-16.888a1.074 1.074 0 0 1 1.685 0l5.496 6.957 10.403-13.171a1.087 1.087 0 0 1 1.698 0l18.253 23.102c.548.691.053 1.713-.843 1.713Z" fill="#000" fill-opacity=".15"/><path d="m244.982 223.83-28.569-28.582a4.242 4.242 0 0 0-3-1.248h-56.394a4.244 4.244 0 0 0-4.248 4.25v110.5a4.244 4.244 0 0 0 4.248 4.25h84.962a4.245 4.245 0 0 0 4.249-4.25v-81.905a4.277 4.277 0 0 0-1.248-3.015Zm-33.534-20.028 24.984 24.995h-24.984v-24.995Zm25.223 99.636h-74.342v-99.876h40.092v28.688a5.578 5.578 0 0 0 5.575 5.578h28.675v65.61Z" fill="#919191"/><path d="m204.899 253.077-10.234 13.319-5.407-7.036a1.048 1.048 0 0 0-.829-.412 1.053 1.053 0 0 0-.828.412l-13.129 17.078a1.086 1.086 0 0 0 .272 1.57c.167.107.36.163.557.162h48.396c.881 0 1.368-1.033.829-1.732l-17.956-23.361a1.062 1.062 0 0 0-.836-.413 1.057 1.057 0 0 0-.835.413Zm-25.402-9.009c0 1.424.555 2.79 1.542 3.797a5.207 5.207 0 0 0 3.72 1.573 5.21 5.21 0 0 0 3.721-1.573 5.425 5.425 0 0 0 1.541-3.797 5.426 5.426 0 0 0-1.541-3.798 5.21 5.21 0 0 0-3.721-1.573 5.207 5.207 0 0 0-3.72 1.573 5.427 5.427 0 0 0-1.542 3.798Z" fill="#919191"/><path d="M129.912 361v-8.944l5.92 8.944h1.568v-11.568h-1.568v8.944l-5.92-8.944h-1.568V361h1.568Zm9.414-3.92c0 2.416 1.728 4.112 4.08 4.112 2.336 0 4.064-1.696 4.064-4.112 0-2.416-1.728-4.112-4.064-4.112-2.352 0-4.08 1.696-4.08 4.112Zm1.52 0c0-1.632 1.04-2.768 2.56-2.768 1.504 0 2.56 1.136 2.56 2.768s-1.056 2.768-2.56 2.768c-1.52 0-2.56-1.136-2.56-2.768Zm13.4-5.76a.997.997 0 0 0 .992-.992.987.987 0 0 0-.992-.992.987.987 0 0 0-.992.992c0 .544.448.992.992.992Zm-.736 9.68h1.504v-7.824h-1.504V361Zm5.191 0v-4.64c0-1.248.752-2.032 1.888-2.032 1.056 0 1.728.672 1.728 1.904V361h1.488v-4.64c0-1.248.752-2.048 1.888-2.048 1.056 0 1.744.704 1.744 1.936V361h1.472v-5.12c0-1.808-1.088-2.928-2.88-2.928-1.216 0-2.16.608-2.528 1.584-.4-.976-1.264-1.584-2.48-1.584-1.104 0-1.936.512-2.336 1.248l-.144-1.024h-1.344V361h1.504Zm14.581.192c1.264 0 2.336-.56 2.736-1.456l.16 1.264h1.28v-4.912c0-2.112-1.312-3.136-3.248-3.136-2.016 0-3.36 1.072-3.36 2.704h1.312c0-.944.72-1.504 1.984-1.504 1.056 0 1.84.464 1.84 1.776v.224l-2.464.192c-1.84.144-2.912 1.04-2.912 2.48 0 1.424.992 2.368 2.672 2.368Zm.432-1.168c-.976 0-1.584-.416-1.584-1.248 0-.768.544-1.28 1.872-1.408l2-.16v.416c0 1.472-.864 2.4-2.288 2.4Zm5.331-3.136c0 2.192 1.408 3.904 3.632 3.904 1.232 0 2.256-.544 2.768-1.456v1.568c0 1.488-.96 2.448-2.432 2.448-1.312 0-2.176-.672-2.368-1.824h-1.504c.288 1.984 1.744 3.184 3.872 3.184 2.4 0 3.92-1.568 3.92-4.032v-7.504h-1.344l-.112 1.328c-.496-.976-1.472-1.552-2.736-1.552-2.272 0-3.696 1.728-3.696 3.936Zm1.504-.032c0-1.44.896-2.592 2.4-2.592 1.536 0 2.432 1.088 2.432 2.592 0 1.536-.928 2.624-2.448 2.624-1.472 0-2.384-1.152-2.384-2.624Zm11.931 4.336c1.936 0 3.248-.944 3.632-2.624h-1.408c-.256.896-1.024 1.376-2.192 1.376-1.488 0-2.352-.912-2.464-2.56l6.048-.016v-.56c0-2.32-1.456-3.856-3.68-3.856-2.272 0-3.824 1.696-3.824 4.144 0 2.432 1.584 4.096 3.888 4.096Zm-.064-6.976c1.328 0 2.176.864 2.176 2.16h-4.512c.192-1.376 1.024-2.16 2.336-2.16Zm12.023 6.976c1.264 0 2.336-.56 2.736-1.456l.16 1.264h1.28v-4.912c0-2.112-1.312-3.136-3.248-3.136-2.016 0-3.36 1.072-3.36 2.704h1.312c0-.944.72-1.504 1.984-1.504 1.056 0 1.84.464 1.84 1.776v.224l-2.464.192c-1.84.144-2.912 1.04-2.912 2.48 0 1.424.992 2.368 2.672 2.368Zm.432-1.168c-.976 0-1.584-.416-1.584-1.248 0-.768.544-1.28 1.872-1.408l2-.16v.416c0 1.472-.864 2.4-2.288 2.4Zm8.962 1.168c1.248 0 2.304-.544 2.816-1.616l.128 1.424h1.344v-11.776h-1.488v5.216c-.528-.96-1.536-1.488-2.736-1.488-2.32 0-3.712 1.76-3.712 4.16 0 2.384 1.376 4.08 3.648 4.08Zm.304-1.36c-1.536 0-2.432-1.152-2.432-2.768 0-1.6.896-2.752 2.432-2.752s2.48 1.152 2.48 2.752c0 1.632-.944 2.768-2.48 2.768Zm9.29 1.36c1.248 0 2.304-.544 2.816-1.616l.128 1.424h1.344v-11.776h-1.488v5.216c-.528-.96-1.536-1.488-2.736-1.488-2.32 0-3.712 1.76-3.712 4.16 0 2.384 1.376 4.08 3.648 4.08Zm.304-1.36c-1.536 0-2.432-1.152-2.432-2.768 0-1.6.896-2.752 2.432-2.752s2.48 1.152 2.48 2.752c0 1.632-.944 2.768-2.48 2.768Zm9.53 1.36c1.936 0 3.248-.944 3.632-2.624h-1.408c-.256.896-1.024 1.376-2.192 1.376-1.488 0-2.352-.912-2.464-2.56l6.048-.016v-.56c0-2.32-1.456-3.856-3.68-3.856-2.272 0-3.824 1.696-3.824 4.144 0 2.432 1.584 4.096 3.888 4.096Zm-.064-6.976c1.328 0 2.176.864 2.176 2.16h-4.512c.192-1.376 1.024-2.16 2.336-2.16Zm8.496 6.976c1.248 0 2.304-.544 2.816-1.616l.128 1.424h1.344v-11.776h-1.488v5.216c-.528-.96-1.536-1.488-2.736-1.488-2.32 0-3.712 1.76-3.712 4.16 0 2.384 1.376 4.08 3.648 4.08Zm.304-1.36c-1.536 0-2.432-1.152-2.432-2.768 0-1.6.896-2.752 2.432-2.752s2.48 1.152 2.48 2.752c0 1.632-.944 2.768-2.48 2.768Zm9.777 4.672c.4.096.816.16 1.312.16 1.2 0 1.984-.56 2.512-1.904l3.696-9.584h-1.552l-2.32 6.304-2.272-6.304h-1.584l3.152 8.24-.272.752c-.368.992-.944 1.104-1.664 1.104h-1.008v1.232Zm11.799-3.312c1.936 0 3.248-.944 3.632-2.624h-1.408c-.256.896-1.024 1.376-2.192 1.376-1.488 0-2.352-.912-2.464-2.56l6.048-.016v-.56c0-2.32-1.456-3.856-3.68-3.856-2.272 0-3.824 1.696-3.824 4.144 0 2.432 1.584 4.096 3.888 4.096Zm-.064-6.976c1.328 0 2.176.864 2.176 2.16h-4.512c.192-1.376 1.024-2.16 2.336-2.16Zm7.49 6.784v-6.56h1.536v-1.264h-1.536v-2.448h-1.504v2.448h-1.536v1.264h1.536V361h1.504Z" fill="#000"/><rect x="1" y="1" width="405" height="548" rx="10" stroke="#D9D9D9" stroke-width="2" stroke-dasharray="18 18"/></g></svg>